<?xml version="1.0" standalone="no"?>
<!DOCTYPE svg PUBLIC "-//W3C//DTD SVG 20010904//EN"
 "http://www.w3.org/TR/2001/REC-SVG-20010904/DTD/svg10.dtd">
<svg version="1.0" xmlns="http://www.w3.org/2000/svg"
 width="422.000000pt" height="242.000000pt" viewBox="0 0 422.000000 242.000000"
 preserveAspectRatio="xMidYMid meet">
<metadata>
Created by potrace 1.16, written by Peter Selinger 2001-2019
</metadata>
<g transform="translate(0.000000,242.000000) scale(0.100000,-0.100000)"
fill="#000000" stroke="none">
<path d="M1350 1345 l0 -575 577 0 578 0 -575 575 c-316 316 -576 575 -577
575 -2 0 -3 -259 -3 -575z"/>
<path d="M810 330 l0 -150 30 0 c26 0 30 3 30 29 0 16 7 35 16 42 14 12 21 8
53 -30 31 -36 41 -42 69 -39 l32 3 -45 57 c-25 32 -45 61 -45 65 0 4 19 27 42
50 l42 43 -34 0 c-27 0 -44 -9 -82 -47 l-48 -47 0 87 0 87 -30 0 -30 0 0 -150z"/>
<path d="M1120 330 l0 -150 30 0 30 0 0 68 c0 75 16 102 58 102 30 0 42 -29
42 -104 l0 -66 30 0 30 0 0 76 c0 76 -10 109 -39 131 -19 15 -61 16 -95 3 -26
-9 -26 -9 -26 40 0 49 -1 50 -30 50 l-30 0 0 -150z"/>
<path d="M2680 330 l0 -150 30 0 30 0 0 150 0 150 -30 0 -30 0 0 -150z"/>
<path d="M3083 458 c-54 -18 -86 -60 -91 -122 -5 -66 20 -115 72 -140 68 -32
169 -12 203 41 82 125 -37 268 -184 221z m92 -52 c63 -26 75 -97 26 -147 -40
-39 -82 -39 -122 0 -48 49 -37 120 24 146 40 18 32 17 72 1z"/>
<path d="M3444 463 c-53 -10 -86 -89 -54 -128 7 -8 38 -22 69 -31 64 -18 86
-35 78 -58 -8 -19 -87 -22 -119 -5 -18 9 -24 8 -35 -7 -7 -10 -13 -21 -13 -25
0 -13 62 -29 112 -29 77 0 117 29 118 86 0 40 -17 54 -94 79 -46 15 -61 25
-61 39 0 31 28 42 77 29 37 -10 45 -10 56 4 19 25 15 31 -25 42 -38 11 -69 12
-109 4z"/>
<path d="M230 320 l0 -140 100 0 100 0 0 25 c0 24 -2 25 -70 25 l-70 0 0 115
0 115 -30 0 -30 0 0 -140z"/>
<path d="M3771 438 c-5 -13 -32 -74 -60 -137 -28 -62 -51 -115 -51 -117 0 -2
14 -4 31 -4 24 0 32 6 40 30 11 29 12 30 80 30 66 0 69 -1 84 -30 12 -23 22
-30 46 -30 21 0 29 4 26 13 -3 6 -31 69 -62 140 -57 127 -58 127 -92 127 -25
0 -36 -5 -42 -22z"/>
<path d="M533 388 c-46 -22 -21 -45 47 -44 42 1 55 -3 58 -15 2 -13 -9 -17
-49 -22 -28 -4 -60 -14 -70 -23 -44 -40 -7 -104 59 -104 21 0 44 6 51 13 11
10 14 10 18 0 3 -7 18 -13 35 -13 l31 0 -6 78 c-3 42 -8 85 -12 95 -16 40
-110 60 -162 35z"/>
<path d="M1468 388 c-16 -5 -28 -13 -28 -16 1 -21 21 -28 70 -28 42 1 55 -3
58 -15 2 -13 -9 -17 -49 -22 -28 -4 -60 -14 -70 -23 -44 -40 -7 -104 59 -104
21 0 44 6 51 12 11 10 14 10 18 1 3 -7 18 -13 34 -13 29 0 29 1 29 58 0 84
-15 129 -50 147 -33 17 -82 18 -122 3z"/>
<path d="M1740 290 l0 -110 30 0 30 0 0 69 c0 74 14 101 50 101 36 0 50 -27
50 -101 l0 -69 30 0 30 0 0 69 c0 37 -5 82 -11 99 -14 41 -58 59 -110 45 -22
-6 -39 -6 -39 -2 0 5 -13 9 -30 9 l-30 0 0 -110z"/>
<path d="M2060 250 l0 -150 30 0 c29 0 30 1 30 51 0 45 2 50 18 43 9 -4 33 -9
53 -12 30 -3 43 2 70 26 30 27 34 36 34 80 0 39 -5 56 -24 76 -29 31 -83 43
-119 26 -19 -8 -28 -8 -30 -1 -2 6 -17 11 -33 11 l-29 0 0 -150z"/>
<path d="M2403 390 c-25 -10 -26 -11 -17 -34 5 -13 14 -15 40 -10 42 8 84 -2
84 -20 0 -8 -18 -15 -51 -19 -29 -4 -60 -14 -70 -23 -44 -40 -7 -104 59 -104
21 0 44 6 51 13 11 10 14 10 18 0 3 -7 16 -13 29 -13 23 0 24 2 24 79 0 44 -3
87 -6 96 -15 37 -106 57 -161 35z"/>
</g>
</svg>
